# Blender v2.77 (sub 0) OBJ File: ''
# www.blender.org
mtllib ramiel.mtl
o Mesh_0088
v 0.000000 137.200012 0.000066
v 0.000000 0.000066 -137.200012
v -137.200012 0.000000 0.000000
vt 0.5146 0.4912
vt 0.5146 1.2232
vt -0.2175 0.4888
vn -0.5774 0.5774 -0.5773
usemtl Tex_0014_0_dds
s 1
f 1/1/1 2/2/1 3/3/1
o Mesh_0091
v 137.200012 0.000000 0.000000
v 0.000000 -137.200012 -0.000066
v 0.000000 0.000066 -137.200012
v 0.000000 -0.000066 137.200012
vt -0.2867 0.7778
vt 0.4454 0.7778
vt 0.4454 0.0458
vt 0.4015 0.1204
vt -0.3305 0.8524
vt 0.4015 0.8525
vn 0.5774 -0.5773 -0.5774
vn 0.5774 -0.5774 0.5773
usemtl Tex_0015_0_dds
s 1
f 4/4/2 5/5/2 6/6/2
f 4/7/3 7/8/3 5/9/3
o Mesh_0092
v 0.000000 137.200012 0.000066
v 0.000000 -0.000066 137.200012
v 137.200012 0.000000 0.000000
vt 0.5216 0.4841
vt 0.5216 -0.2480
vt 1.2537 0.4876
vn 0.5774 0.5774 0.5774
usemtl Tex_0014_0_dds
s 1
f 8/10/4 9/11/4 10/12/4
o Mesh_0089
v 0.000000 0.000066 -137.200012
v 0.000000 -137.200012 -0.000066
v -137.200012 0.000000 0.000000
v 0.000000 -0.000066 137.200012
vt -0.3184 0.5684
vt 0.4137 0.5684
vt 0.4137 1.3005
vt 0.5205 0.8664
vt 0.5205 0.1344
vt -0.2115 0.8664
vn -0.5774 -0.5774 -0.5774
vn -0.5774 -0.5774 0.5773
usemtl Tex_0015_0_dds
s 1
f 11/13/5 12/14/5 13/15/5
f 12/16/6 14/17/6 13/18/6
o Mesh_0090
v 0.000000 -0.000066 137.200012
v 0.000000 137.200012 0.000066
v -137.200012 0.000000 0.000000
v 137.200012 0.000000 0.000000
v 0.000000 0.000066 -137.200012
vt 0.3227 0.9759
vt -0.1949 0.4583
vt 0.3194 -0.0627
vt 0.4480 1.0393
vt 0.4444 0.3073
vt 1.1800 1.0393
vn -0.5774 0.5774 0.5774
vn 0.5774 0.5774 -0.5773
usemtl Tex_0014_0_dds
s 1
f 15/19/7 16/20/7 17/21/7
f 16/22/8 18/23/8 19/24/8
