# Blender v2.77 (sub 0) OBJ File: ''
# www.blender.org
mtllib Ramiel Reflective Surface.mtl
o Mesh_0094
v 0.000000 137.200012 0.000066
v 0.000000 0.000066 -137.200012
v -137.200012 0.000000 0.000000
v 0.000000 -137.200012 -0.000066
v 0.000000 -0.000066 137.200012
v 137.200012 0.000000 0.000000
vt 0.5191 0.4881
vt 0.5191 1.2831
vt -0.2759 0.4856
vt -0.3854 0.5721
vt 0.4096 0.5721
vt 0.4096 1.3671
vt 0.5256 0.8957
vt 0.5256 0.1007
vt -0.2694 0.8957
vt 0.3108 1.0146
vt -0.2514 0.4525
vt 0.3072 -0.1133
vt 0.5268 0.4881
vt 1.3218 0.4843
vt 0.5268 1.2831
vt -0.3510 0.7995
vt 0.4440 0.7995
vt 0.4440 0.0045
vt 0.3964 0.0855
vt -0.3986 0.8805
vt 0.3964 0.8805
vt 0.5268 0.4805
vt 0.5268 -0.3145
vn -0.5774 0.5774 -0.5773
vn -0.5774 -0.5774 -0.5774
vn -0.5774 -0.5774 0.5773
vn -0.5774 0.5774 0.5774
vn 0.5774 0.5774 -0.5773
vn 0.5774 -0.5773 -0.5774
vn 0.5774 -0.5774 0.5773
vn 0.5774 0.5774 0.5774
usemtl Tex_0016_0_dds
s 1
f 1/1/1 2/2/1 3/3/1
f 2/4/2 4/5/2 3/6/2
f 4/7/3 5/8/3 3/9/3
f 5/10/4 1/11/4 3/12/4
f 1/13/5 6/14/5 2/15/5
f 6/16/6 4/17/6 2/18/6
f 6/19/7 5/20/7 4/21/7
f 1/22/8 5/23/8 6/14/8
